<svg width="200" height="200" viewBox="0 0 200 200" fill="none" xmlns="http://www.w3.org/2000/svg">
<rect width="200" height="200" rx="100" fill="white"/>
<path d="M45.7197 136.705L40.9349 146.367C40.8598 146.516 40.747 146.635 40.5967 146.723C40.451 146.817 40.289 146.863 40.1104 146.863C39.9366 146.863 39.7745 146.817 39.6242 146.723C39.4786 146.635 39.3658 146.516 39.286 146.367L34.5082 136.705H36.5588L40.1104 143.922L43.6761 136.705H45.7197Z" fill="#2C2C2C"/>
<path d="M63.697 146.723H61.0967L56.9743 142.63H55.6848V140.799H56.9743L61.0967 136.705H63.697L58.5035 141.714L63.697 146.723ZM54.9519 146.723H53.1197V136.705H54.9519V146.723Z" fill="#2C2C2C"/>
<path d="M79.0106 144.173C79.0106 144.486 78.9707 144.767 78.8908 145.019C78.811 145.266 78.7053 145.485 78.5737 145.676C78.4422 145.862 78.2895 146.023 78.1157 146.158C77.9419 146.288 77.7586 146.395 77.566 146.479C77.3781 146.563 77.1855 146.626 76.9882 146.668C76.7956 146.705 76.6124 146.723 76.4385 146.723H73.1336C72.8799 146.723 72.6027 146.679 72.302 146.591C72.0014 146.502 71.7219 146.358 71.4635 146.158C71.2098 145.953 70.996 145.69 70.8222 145.368C70.6531 145.042 70.5685 144.644 70.5685 144.173V141.714C70.5685 141.249 70.6531 140.855 70.8222 140.534C70.996 140.208 71.2098 139.944 71.4635 139.744C71.7219 139.539 72.0014 139.393 72.302 139.304C72.6027 139.216 72.8799 139.171 73.1336 139.171H76.4385C76.9083 139.171 77.3076 139.255 77.6365 139.423C77.9653 139.591 78.2308 139.802 78.4328 140.059C78.6348 140.31 78.7804 140.585 78.8697 140.883C78.9636 141.181 79.0106 141.458 79.0106 141.714V144.173ZM77.1784 141.728C77.1784 141.477 77.115 141.291 76.9882 141.169C76.8613 141.048 76.6781 140.988 76.4385 140.988H73.1477C72.9034 140.988 72.7178 141.051 72.591 141.176C72.4641 141.297 72.4007 141.477 72.4007 141.714V144.173C72.4007 144.411 72.4641 144.593 72.591 144.718C72.7178 144.844 72.9034 144.907 73.1477 144.907H76.4385C76.6875 144.907 76.8731 144.844 76.9952 144.718C77.1174 144.593 77.1784 144.411 77.1784 144.173V141.728Z" fill="#2C2C2C"/>
<path d="M95.2826 144.173C95.2826 144.486 95.2427 144.767 95.1628 145.019C95.0829 145.266 94.9772 145.485 94.8457 145.676C94.7142 145.862 94.5615 146.023 94.3876 146.158C94.2138 146.288 94.0306 146.395 93.838 146.479C93.6501 146.563 93.4575 146.626 93.2602 146.668C93.0675 146.705 92.8843 146.723 92.7105 146.723H89.4055C89.0908 146.723 88.8089 146.684 88.5599 146.605C88.3109 146.526 88.0901 146.421 87.8975 146.29C87.7096 146.155 87.5475 146.002 87.4113 145.829C87.2797 145.657 87.1717 145.478 87.0871 145.291C87.0026 145.1 86.9392 144.909 86.8969 144.718C86.8593 144.523 86.8405 144.341 86.8405 144.173V141.714C86.8405 141.249 86.9251 140.855 87.0942 140.534C87.268 140.208 87.4818 139.944 87.7354 139.744C87.9938 139.539 88.2733 139.393 88.574 139.304C88.8747 139.216 89.1519 139.171 89.4055 139.171H92.7105V140.988H89.4196C89.1753 140.988 88.9898 141.051 88.8629 141.176C88.7361 141.297 88.6727 141.477 88.6727 141.714V144.16C88.6727 144.406 88.7337 144.593 88.8559 144.718C88.9827 144.844 89.1659 144.907 89.4055 144.907H92.7105C92.9595 144.907 93.1451 144.844 93.2672 144.718C93.3893 144.593 93.4504 144.411 93.4504 144.173V135.979H95.2826V144.173Z" fill="#2C2C2C"/>
<path d="M111.576 141.672C111.576 141.924 111.531 142.196 111.442 142.49C111.353 142.779 111.207 143.049 111.005 143.3C110.808 143.547 110.547 143.754 110.223 143.922C109.903 144.09 109.513 144.173 109.053 144.173H105.748V142.448H109.053C109.302 142.448 109.495 142.373 109.631 142.224C109.767 142.071 109.835 141.882 109.835 141.658C109.835 141.421 109.758 141.235 109.603 141.1C109.452 140.964 109.269 140.897 109.053 140.897H105.748C105.499 140.897 105.306 140.974 105.17 141.127C105.034 141.277 104.966 141.463 104.966 141.686V144.222C104.966 144.465 105.041 144.653 105.191 144.788C105.346 144.923 105.537 144.991 105.762 144.991H109.053V146.723H105.748C105.494 146.723 105.219 146.679 104.924 146.591C104.632 146.502 104.36 146.36 104.106 146.165C103.857 145.964 103.648 145.706 103.479 145.389C103.31 145.068 103.225 144.679 103.225 144.222V141.672C103.225 141.421 103.27 141.151 103.359 140.862C103.448 140.569 103.592 140.298 103.789 140.052C103.991 139.8 104.252 139.591 104.571 139.423C104.895 139.255 105.288 139.171 105.748 139.171H109.053C109.307 139.171 109.579 139.216 109.87 139.304C110.166 139.393 110.439 139.537 110.688 139.737C110.941 139.933 111.153 140.191 111.322 140.513C111.491 140.829 111.576 141.216 111.576 141.672Z" fill="#2C2C2C"/>
<path d="M127.559 144.173C127.559 144.346 127.538 144.527 127.495 144.718C127.458 144.909 127.397 145.1 127.312 145.291C127.228 145.478 127.117 145.657 126.981 145.829C126.849 146.002 126.687 146.155 126.495 146.29C126.307 146.421 126.088 146.526 125.839 146.605C125.59 146.684 125.308 146.723 124.994 146.723H121.689C121.515 146.723 121.332 146.705 121.139 146.668C120.946 146.626 120.754 146.563 120.561 146.479C120.373 146.395 120.192 146.288 120.019 146.158C119.845 146.023 119.69 145.862 119.554 145.676C119.422 145.485 119.316 145.266 119.236 145.019C119.157 144.767 119.117 144.486 119.117 144.173V135.979H120.949V144.173C120.949 144.397 121.019 144.576 121.16 144.711C121.301 144.842 121.477 144.907 121.689 144.907H124.994C125.224 144.907 125.402 144.84 125.529 144.704C125.661 144.569 125.727 144.392 125.727 144.173V141.714C125.727 141.486 125.658 141.309 125.522 141.183C125.386 141.053 125.21 140.988 124.994 140.988H121.689V139.171H124.994C125.168 139.171 125.351 139.192 125.543 139.234C125.736 139.271 125.926 139.332 126.114 139.416C126.307 139.5 126.49 139.609 126.664 139.744C126.838 139.875 126.99 140.035 127.122 140.226C127.253 140.413 127.359 140.629 127.439 140.876C127.519 141.123 127.559 141.402 127.559 141.714V144.173Z" fill="#2C2C2C"/>
<path d="M143.873 147.45C143.873 147.762 143.833 148.042 143.753 148.288C143.673 148.54 143.568 148.759 143.436 148.945C143.305 149.136 143.152 149.297 142.978 149.427C142.804 149.562 142.621 149.672 142.428 149.756C142.24 149.839 142.05 149.9 141.858 149.937C141.665 149.979 141.482 150 141.308 150H138.003V148.184H141.308C141.552 148.184 141.735 148.121 141.858 147.995C141.98 147.869 142.041 147.688 142.041 147.45V139.171H143.873V147.45ZM141.308 146.723H138.003C137.74 146.723 137.458 146.679 137.157 146.591C136.861 146.502 136.584 146.358 136.326 146.158C136.067 145.953 135.854 145.69 135.685 145.368C135.515 145.042 135.431 144.644 135.431 144.173V139.171H137.263V144.173C137.263 144.411 137.327 144.593 137.453 144.718C137.58 144.844 137.768 144.907 138.017 144.907H141.308V146.723Z" fill="#2C2C2C"/>
<path d="M158.898 140.988H155.698V146.723H153.845V140.988H151.463V139.171H153.845V136.705H155.698V139.171H158.898V140.988Z" fill="#2C2C2C"/>
<path d="M174.62 141.672C174.62 141.924 174.575 142.196 174.486 142.49C174.397 142.779 174.251 143.049 174.049 143.3C173.852 143.547 173.591 143.754 173.267 143.922C172.948 144.09 172.558 144.173 172.097 144.173H168.792V142.448H172.097C172.346 142.448 172.539 142.373 172.675 142.224C172.811 142.071 172.879 141.882 172.879 141.658C172.879 141.421 172.802 141.235 172.647 141.1C172.497 140.964 172.313 140.897 172.097 140.897H168.792C168.543 140.897 168.351 140.974 168.214 141.127C168.078 141.277 168.01 141.463 168.01 141.686V144.222C168.01 144.465 168.085 144.653 168.236 144.788C168.391 144.923 168.581 144.991 168.806 144.991H172.097V146.723H168.792C168.539 146.723 168.264 146.679 167.968 146.591C167.677 146.502 167.404 146.36 167.15 146.165C166.901 145.964 166.692 145.706 166.523 145.389C166.354 145.068 166.27 144.679 166.27 144.222V141.672C166.27 141.421 166.314 141.151 166.403 140.862C166.493 140.569 166.636 140.298 166.833 140.052C167.035 139.8 167.296 139.591 167.615 139.423C167.94 139.255 168.332 139.171 168.792 139.171H172.097C172.351 139.171 172.623 139.216 172.915 139.304C173.211 139.393 173.483 139.537 173.732 139.737C173.986 139.933 174.197 140.191 174.366 140.513C174.535 140.829 174.62 141.216 174.62 141.672Z" fill="#2C2C2C"/>
<path d="M105.762 56.3369L70.4413 127.505C69.8864 128.602 69.0541 129.477 67.9444 130.129C66.8693 130.815 65.6729 131.158 64.3551 131.158C63.0719 131.158 61.8755 130.815 60.7658 130.129C59.6907 129.477 58.8584 128.602 58.2688 127.505L23 56.3369H38.1375L64.3551 109.494L90.6767 56.3369H105.762Z" fill="url(#paint0_linear_35_33)"/>
<path d="M173.482 130.129H154.287L123.856 99.9741H114.337V86.4918H123.856L154.287 56.3369H173.482L135.145 93.233L173.482 130.129ZM108.927 130.129H95.4021V56.3369H108.927V130.129Z" fill="url(#paint1_linear_35_33)"/>
<g clip-path="url(#clip0_35_33)">
<path d="M104.432 38.7444H96.1092C95.343 38.7444 94.722 39.3588 94.722 40.1167V48.3501C94.722 49.108 95.343 49.7223 96.1092 49.7223H104.432C105.198 49.7223 105.819 49.108 105.819 48.3501V40.1167C105.819 39.3588 105.198 38.7444 104.432 38.7444Z" stroke="#2C2C2C" stroke-width="3.16667" stroke-linecap="round" stroke-linejoin="round"/>
<path d="M102.351 42.1751H98.1899V46.2918H102.351V42.1751Z" stroke="#2C2C2C" stroke-width="3.16667" stroke-linecap="round" stroke-linejoin="round"/>
<path d="M98.1899 36.6861V38.7445" stroke="#2C2C2C" stroke-width="3.16667" stroke-linecap="round" stroke-linejoin="round"/>
<path d="M102.351 36.6861V38.7445" stroke="#2C2C2C" stroke-width="3.16667" stroke-linecap="round" stroke-linejoin="round"/>
<path d="M98.1899 49.7224V51.7807" stroke="#2C2C2C" stroke-width="3.16667" stroke-linecap="round" stroke-linejoin="round"/>
<path d="M102.351 49.7224V51.7807" stroke="#2C2C2C" stroke-width="3.16667" stroke-linecap="round" stroke-linejoin="round"/>
<path d="M105.819 42.1751H107.9" stroke="#2C2C2C" stroke-width="3.16667" stroke-linecap="round" stroke-linejoin="round"/>
<path d="M105.819 45.6057H107.9" stroke="#2C2C2C" stroke-width="3.16667" stroke-linecap="round" stroke-linejoin="round"/>
<path d="M92.6412 42.1751H94.722" stroke="#2C2C2C" stroke-width="3.16667" stroke-linecap="round" stroke-linejoin="round"/>
<path d="M92.6412 45.6057H94.722" stroke="#2C2C2C" stroke-width="3.16667" stroke-linecap="round" stroke-linejoin="round"/>
</g>
<defs>
<linearGradient id="paint0_linear_35_33" x1="98.6834" y1="25.5645" x2="98.6834" y2="159.769" gradientUnits="userSpaceOnUse">
<stop stop-color="#7766DD"/>
<stop offset="0.5" stop-color="#5649A4"/>
<stop offset="1" stop-color="#362D6B"/>
</linearGradient>
<linearGradient id="paint1_linear_35_33" x1="98.6834" y1="25.5645" x2="98.6834" y2="159.769" gradientUnits="userSpaceOnUse">
<stop stop-color="#7766DD"/>
<stop offset="0.5" stop-color="#5649A4"/>
<stop offset="1" stop-color="#362D6B"/>
</linearGradient>
<clipPath id="clip0_35_33">
<rect width="16.6461" height="16.4668" fill="white" transform="translate(91.9476 36)"/>
</clipPath>
</defs>
</svg>
