<svg width="789" height="200" viewBox="0 0 789 200" fill="none" xmlns="http://www.w3.org/2000/svg">
<path d="M90.2867 196.56C88.2029 196.56 86.4111 196.181 84.9115 195.424C83.4314 194.666 82.2823 193.519 81.4644 191.984C80.6659 190.449 80.2666 188.525 80.2666 186.212C80.2666 183.881 80.6659 181.957 81.4644 180.441C82.2823 178.906 83.4314 177.759 84.9115 177.001C86.4111 176.243 88.2029 175.864 90.2867 175.864C92.3706 175.864 94.1526 176.243 95.6327 177.001C97.1323 177.759 98.2814 178.906 99.0799 180.441C99.8978 181.957 100.307 183.881 100.307 186.212C100.307 188.525 99.8978 190.449 99.0799 191.984C98.2814 193.519 97.1323 194.666 95.6327 195.424C94.1526 196.181 92.3706 196.56 90.2867 196.56ZM90.2867 194.17C91.3773 194.17 92.3609 194.024 93.2372 193.733C94.1331 193.441 94.8829 192.985 95.4867 192.363C96.1099 191.722 96.587 190.925 96.9181 189.973C97.2492 189.001 97.4147 187.855 97.4147 186.533V185.921C97.4147 184.58 97.2492 183.434 96.9181 182.481C96.587 181.51 96.1099 180.713 95.4867 180.091C94.8829 179.45 94.1331 178.983 93.2372 178.692C92.3609 178.4 91.3773 178.255 90.2867 178.255C89.1766 178.255 88.1834 178.4 87.307 178.692C86.4306 178.983 85.6808 179.45 85.0576 180.091C84.4344 180.713 83.9572 181.51 83.6261 182.481C83.3145 183.434 83.1587 184.58 83.1587 185.921V186.533C83.1587 187.855 83.3145 189.001 83.6261 189.973C83.9572 190.925 84.4344 191.722 85.0576 192.363C85.6808 192.985 86.4306 193.441 87.307 193.733C88.1834 194.024 89.1766 194.17 90.2867 194.17Z" fill="#2C2C2C"/>
<path d="M104.312 196.211V176.214H106.999L116.727 189.39C116.824 189.506 116.951 189.681 117.107 189.914C117.263 190.148 117.418 190.381 117.574 190.614C117.73 190.828 117.857 191.022 117.954 191.197H118.071C118.071 190.886 118.071 190.585 118.071 190.293C118.071 189.982 118.071 189.681 118.071 189.39V176.214H120.788V196.211H118.246L108.401 182.802C108.265 182.588 108.061 182.287 107.788 181.898C107.535 181.51 107.32 181.199 107.145 180.966H106.999C106.999 181.277 106.999 181.587 106.999 181.898C106.999 182.19 106.999 182.491 106.999 182.802V196.211H104.312Z" fill="#2C2C2C"/>
<path d="M125.822 196.211V176.214H133.3C135.404 176.214 137.196 176.564 138.676 177.264C140.156 177.963 141.285 179.051 142.064 180.528C142.863 181.986 143.262 183.881 143.262 186.212C143.262 188.506 142.863 190.39 142.064 191.867C141.285 193.344 140.156 194.442 138.676 195.161C137.196 195.861 135.404 196.211 133.3 196.211H125.822ZM128.597 193.82H133.242C134.352 193.82 135.345 193.684 136.222 193.412C137.098 193.121 137.848 192.684 138.471 192.101C139.094 191.518 139.562 190.769 139.873 189.856C140.205 188.923 140.37 187.816 140.37 186.533V185.95C140.37 184.629 140.205 183.511 139.873 182.598C139.562 181.665 139.094 180.907 138.471 180.324C137.867 179.741 137.127 179.314 136.251 179.042C135.375 178.75 134.372 178.604 133.242 178.604H128.597V193.82Z" fill="#2C2C2C"/>
<path d="M147.275 196.211V176.214H162.7V178.604H150.051V184.784H161.414V187.174H150.051V193.82H162.875V196.211H147.275Z" fill="#2C2C2C"/>
<path d="M177.766 196.211V179.479H171.369V176.214H187.991V179.479H181.564V196.211H177.766Z" fill="#7766DD"/>
<path d="M190.945 196.211V176.214H206.574V179.45H194.743V184.376H205.289V187.612H194.743V192.975H206.75V196.211H190.945Z" fill="#7766DD"/>
<path d="M219.395 196.56C217.35 196.56 215.598 196.201 214.137 195.482C212.696 194.763 211.586 193.645 210.807 192.13C210.047 190.595 209.667 188.622 209.667 186.212C209.667 182.695 210.524 180.091 212.238 178.4C213.952 176.71 216.338 175.864 219.395 175.864C221.051 175.864 222.541 176.146 223.865 176.71C225.209 177.273 226.27 178.128 227.049 179.275C227.848 180.402 228.247 181.84 228.247 183.589H224.362C224.362 182.617 224.147 181.801 223.719 181.14C223.31 180.46 222.735 179.945 221.995 179.596C221.255 179.246 220.408 179.071 219.454 179.071C218.129 179.071 217.029 179.333 216.153 179.858C215.276 180.363 214.624 181.121 214.195 182.132C213.786 183.142 213.582 184.395 213.582 185.892V186.533C213.582 188.049 213.786 189.312 214.195 190.322C214.624 191.333 215.267 192.091 216.124 192.596C217 193.101 218.11 193.354 219.454 193.354C220.467 193.354 221.353 193.189 222.112 192.858C222.872 192.509 223.456 192.003 223.865 191.343C224.293 190.663 224.508 189.837 224.508 188.865H228.247C228.247 190.614 227.857 192.062 227.078 193.208C226.299 194.335 225.238 195.181 223.894 195.744C222.57 196.288 221.07 196.56 219.395 196.56Z" fill="#7766DD"/>
<path d="M231.627 196.211V176.214H235.249L243.809 188.02C243.906 188.136 244.023 188.301 244.159 188.515C244.296 188.71 244.422 188.904 244.539 189.098C244.656 189.293 244.734 189.448 244.773 189.565H244.919C244.919 189.293 244.919 189.03 244.919 188.778C244.919 188.525 244.919 188.272 244.919 188.02V176.214H248.571V196.211H244.977L236.389 184.318C236.233 184.085 236.048 183.803 235.834 183.472C235.639 183.123 235.503 182.88 235.425 182.744H235.279C235.279 182.996 235.279 183.259 235.279 183.531C235.279 183.783 235.279 184.046 235.279 184.318V196.211H231.627Z" fill="#7766DD"/>
<path d="M262.225 196.56C260.142 196.56 258.34 196.191 256.821 195.453C255.302 194.695 254.133 193.548 253.315 192.013C252.517 190.478 252.118 188.544 252.118 186.212C252.118 183.861 252.517 181.928 253.315 180.412C254.133 178.877 255.302 177.74 256.821 177.001C258.34 176.243 260.142 175.864 262.225 175.864C264.329 175.864 266.13 176.243 267.63 177.001C269.149 177.74 270.308 178.877 271.106 180.412C271.924 181.928 272.333 183.861 272.333 186.212C272.333 188.544 271.924 190.478 271.106 192.013C270.308 193.548 269.149 194.695 267.63 195.453C266.13 196.191 264.329 196.56 262.225 196.56ZM262.225 193.354C263.238 193.354 264.124 193.208 264.884 192.917C265.663 192.625 266.315 192.198 266.841 191.634C267.367 191.051 267.766 190.342 268.039 189.506C268.311 188.651 268.448 187.67 268.448 186.562V185.921C268.448 184.794 268.311 183.803 268.039 182.948C267.766 182.093 267.367 181.383 266.841 180.82C266.315 180.237 265.663 179.8 264.884 179.508C264.124 179.217 263.238 179.071 262.225 179.071C261.213 179.071 260.317 179.217 259.538 179.508C258.778 179.8 258.136 180.237 257.61 180.82C257.084 181.383 256.685 182.093 256.412 182.948C256.159 183.803 256.032 184.794 256.032 185.921V186.562C256.032 187.67 256.159 188.651 256.412 189.506C256.685 190.342 257.084 191.051 257.61 191.634C258.136 192.198 258.778 192.625 259.538 192.917C260.317 193.208 261.213 193.354 262.225 193.354Z" fill="#7766DD"/>
<path d="M275.875 196.211V176.214H279.672V192.917H289.722V196.211H275.875Z" fill="#7766DD"/>
<path d="M300.853 196.56C298.769 196.56 296.968 196.191 295.448 195.453C293.929 194.695 292.761 193.548 291.943 192.013C291.144 190.478 290.745 188.544 290.745 186.212C290.745 183.861 291.144 181.928 291.943 180.412C292.761 178.877 293.929 177.74 295.448 177.001C296.968 176.243 298.769 175.864 300.853 175.864C302.956 175.864 304.758 176.243 306.257 177.001C307.776 177.74 308.935 178.877 309.734 180.412C310.552 181.928 310.961 183.861 310.961 186.212C310.961 188.544 310.552 190.478 309.734 192.013C308.935 193.548 307.776 194.695 306.257 195.453C304.758 196.191 302.956 196.56 300.853 196.56ZM300.853 193.354C301.866 193.354 302.752 193.208 303.511 192.917C304.29 192.625 304.943 192.198 305.469 191.634C305.994 191.051 306.394 190.342 306.666 189.506C306.939 188.651 307.075 187.67 307.075 186.562V185.921C307.075 184.794 306.939 183.803 306.666 182.948C306.394 182.093 305.994 181.383 305.469 180.82C304.943 180.237 304.29 179.8 303.511 179.508C302.752 179.217 301.866 179.071 300.853 179.071C299.84 179.071 298.944 179.217 298.165 179.508C297.406 179.8 296.763 180.237 296.237 180.82C295.711 181.383 295.312 182.093 295.04 182.948C294.786 183.803 294.66 184.794 294.66 185.921V186.562C294.66 187.67 294.786 188.651 295.04 189.506C295.312 190.342 295.711 191.051 296.237 191.634C296.763 192.198 297.406 192.625 298.165 192.917C298.944 193.208 299.84 193.354 300.853 193.354Z" fill="#7766DD"/>
<path d="M323.617 196.56C320.52 196.56 318.115 195.735 316.401 194.083C314.687 192.412 313.83 189.788 313.83 186.212C313.83 183.861 314.229 181.928 315.028 180.412C315.846 178.877 317.014 177.74 318.533 177.001C320.072 176.243 321.912 175.864 324.055 175.864C325.34 175.864 326.548 176.01 327.677 176.302C328.807 176.593 329.8 177.04 330.657 177.643C331.533 178.226 332.215 178.964 332.702 179.858C333.189 180.752 333.432 181.811 333.432 183.035H329.518C329.518 182.394 329.371 181.83 329.079 181.345C328.807 180.839 328.417 180.421 327.911 180.091C327.424 179.741 326.859 179.489 326.216 179.333C325.574 179.158 324.892 179.071 324.172 179.071C323.1 179.071 322.156 179.217 321.338 179.508C320.539 179.78 319.868 180.208 319.322 180.791C318.796 181.354 318.397 182.064 318.124 182.919C317.871 183.774 317.745 184.774 317.745 185.921V186.533C317.745 188.107 317.969 189.399 318.417 190.41C318.865 191.42 319.536 192.169 320.432 192.654C321.348 193.121 322.477 193.354 323.821 193.354C324.97 193.354 325.973 193.179 326.83 192.829C327.706 192.48 328.388 191.974 328.875 191.314C329.381 190.633 329.634 189.808 329.634 188.836V188.632H323.237V185.484H333.432V196.211H330.715L330.394 193.995C329.81 194.578 329.186 195.064 328.524 195.453C327.862 195.822 327.132 196.094 326.333 196.269C325.535 196.463 324.629 196.56 323.617 196.56Z" fill="#7766DD"/>
<path d="M337.696 196.211V176.214H341.493V196.211H337.696Z" fill="#7766DD"/>
<path d="M343.866 196.211L351.666 176.214H356.457L364.286 196.211H360.167L358.56 191.955H349.387L347.781 196.211H343.866ZM350.585 188.748H357.333L355.318 183.327C355.24 183.132 355.142 182.889 355.026 182.598C354.928 182.287 354.821 181.957 354.704 181.607C354.587 181.238 354.471 180.868 354.354 180.499C354.237 180.13 354.13 179.8 354.032 179.508H353.886C353.769 179.897 353.623 180.344 353.448 180.849C353.292 181.354 353.137 181.83 352.981 182.277C352.825 182.724 352.698 183.074 352.601 183.327L350.585 188.748Z" fill="#7766DD"/>
<path d="M373.049 196.211V176.214H388.474V178.604H375.824V184.784H387.188V187.174H375.824V193.82H388.649V196.211H373.049Z" fill="#2C2C2C"/>
<path d="M392.819 196.211V176.214H395.507L405.235 189.39C405.332 189.506 405.459 189.681 405.615 189.914C405.771 190.148 405.926 190.381 406.082 190.614C406.238 190.828 406.365 191.022 406.462 191.197H406.579C406.579 190.886 406.579 190.585 406.579 190.293C406.579 189.982 406.579 189.681 406.579 189.39V176.214H409.296V196.211H406.754L396.909 182.802C396.773 182.588 396.568 182.287 396.296 181.898C396.043 181.51 395.828 181.199 395.653 180.966H395.507C395.507 181.277 395.507 181.587 395.507 181.898C395.507 182.19 395.507 182.491 395.507 182.802V196.211H392.819Z" fill="#2C2C2C"/>
<path d="M422.889 196.56C420.844 196.56 419.111 196.191 417.689 195.453C416.268 194.695 415.177 193.558 414.417 192.042C413.677 190.507 413.307 188.564 413.307 186.212C413.307 182.734 414.155 180.14 415.849 178.43C417.543 176.72 419.9 175.864 422.918 175.864C424.632 175.864 426.151 176.146 427.476 176.71C428.8 177.254 429.832 178.09 430.572 179.217C431.332 180.324 431.712 181.723 431.712 183.414H428.907C428.907 182.248 428.654 181.286 428.148 180.528C427.661 179.77 426.969 179.207 426.073 178.838C425.178 178.449 424.126 178.255 422.918 178.255C421.516 178.255 420.309 178.527 419.296 179.071C418.283 179.615 417.514 180.46 416.988 181.607C416.462 182.734 416.199 184.191 416.199 185.979V186.591C416.199 188.36 416.462 189.808 416.988 190.935C417.514 192.042 418.274 192.858 419.267 193.383C420.28 193.908 421.497 194.17 422.918 194.17C424.165 194.17 425.236 193.986 426.132 193.616C427.047 193.247 427.748 192.684 428.235 191.926C428.742 191.148 428.995 190.177 428.995 189.011H431.712C431.712 190.74 431.322 192.159 430.543 193.267C429.784 194.374 428.742 195.2 427.417 195.744C426.093 196.288 424.584 196.56 422.889 196.56Z" fill="#2C2C2C"/>
<path d="M444.581 196.56C442.497 196.56 440.705 196.181 439.206 195.424C437.726 194.666 436.577 193.519 435.759 191.984C434.96 190.449 434.561 188.525 434.561 186.212C434.561 183.881 434.96 181.957 435.759 180.441C436.577 178.906 437.726 177.759 439.206 177.001C440.705 176.243 442.497 175.864 444.581 175.864C446.665 175.864 448.447 176.243 449.927 177.001C451.427 177.759 452.576 178.906 453.374 180.441C454.192 181.957 454.601 183.881 454.601 186.212C454.601 188.525 454.192 190.449 453.374 191.984C452.576 193.519 451.427 194.666 449.927 195.424C448.447 196.181 446.665 196.56 444.581 196.56ZM444.581 194.17C445.672 194.17 446.655 194.024 447.532 193.733C448.428 193.441 449.177 192.985 449.781 192.363C450.404 191.722 450.881 190.925 451.212 189.973C451.544 189.001 451.709 187.855 451.709 186.533V185.921C451.709 184.58 451.544 183.434 451.212 182.481C450.881 181.51 450.404 180.713 449.781 180.091C449.177 179.45 448.428 178.983 447.532 178.692C446.655 178.4 445.672 178.255 444.581 178.255C443.471 178.255 442.478 178.4 441.601 178.692C440.725 178.983 439.975 179.45 439.352 180.091C438.729 180.713 438.252 181.51 437.921 182.481C437.609 183.434 437.453 184.58 437.453 185.921V186.533C437.453 187.855 437.609 189.001 437.921 189.973C438.252 190.925 438.729 191.722 439.352 192.363C439.975 192.985 440.725 193.441 441.601 193.733C442.478 194.024 443.471 194.17 444.581 194.17Z" fill="#2C2C2C"/>
<path d="M458.606 196.211V176.214H461.294L471.021 189.39C471.119 189.506 471.245 189.681 471.401 189.914C471.557 190.148 471.713 190.381 471.869 190.614C472.024 190.828 472.151 191.022 472.248 191.197H472.365C472.365 190.886 472.365 190.585 472.365 190.293C472.365 189.982 472.365 189.681 472.365 189.39V176.214H475.082V196.211H472.541L462.696 182.802C462.559 182.588 462.355 182.287 462.082 181.898C461.829 181.51 461.615 181.199 461.44 180.966H461.294C461.294 181.277 461.294 181.587 461.294 181.898C461.294 182.19 461.294 182.491 461.294 182.802V196.211H458.606Z" fill="#2C2C2C"/>
<path d="M485.024 196.211V178.634H478.159V176.214H494.723V178.634H487.799V196.211H485.024Z" fill="#2C2C2C"/>
<path d="M497.832 196.211V176.214H508.378C509.742 176.214 510.871 176.467 511.767 176.972C512.682 177.458 513.364 178.148 513.812 179.042C514.26 179.916 514.484 180.927 514.484 182.073C514.484 183.453 514.172 184.638 513.549 185.629C512.926 186.621 512.069 187.33 510.978 187.757L515.185 196.211H512.147L508.232 188.253H500.608V196.211H497.832ZM500.608 185.892H508.115C509.226 185.892 510.092 185.552 510.715 184.872C511.358 184.191 511.679 183.259 511.679 182.073C511.679 181.335 511.543 180.713 511.27 180.208C510.998 179.702 510.599 179.314 510.073 179.042C509.547 178.75 508.894 178.604 508.115 178.604H500.608V185.892Z" fill="#2C2C2C"/>
<path d="M516.75 196.211L524.667 176.214H528.318L536.264 196.211H533.255L531.298 191.255H521.541L519.613 196.211H516.75ZM522.446 188.894H530.363L527.938 182.627C527.88 182.452 527.792 182.209 527.675 181.898C527.559 181.587 527.432 181.247 527.296 180.878C527.159 180.489 527.023 180.101 526.887 179.712C526.75 179.304 526.624 178.935 526.507 178.604H526.332C526.195 178.993 526.04 179.44 525.864 179.945C525.689 180.451 525.514 180.946 525.338 181.432C525.163 181.898 525.017 182.297 524.9 182.627L522.446 188.894Z" fill="#2C2C2C"/>
<path d="M558.28 200L554.95 196.531C554.794 196.551 554.628 196.56 554.453 196.56C554.297 196.56 554.141 196.56 553.986 196.56C551.902 196.56 550.1 196.191 548.581 195.453C547.062 194.695 545.894 193.548 545.076 192.013C544.277 190.478 543.878 188.544 543.878 186.212C543.878 183.861 544.277 181.928 545.076 180.412C545.894 178.877 547.062 177.74 548.581 177.001C550.1 176.243 551.902 175.864 553.986 175.864C556.089 175.864 557.89 176.243 559.39 177.001C560.909 177.74 562.068 178.877 562.866 180.412C563.684 181.928 564.093 183.861 564.093 186.212C564.093 188.68 563.636 190.701 562.72 192.275C561.824 193.83 560.549 194.967 558.893 195.686L563.363 200H558.28ZM553.986 193.354C554.998 193.354 555.884 193.208 556.644 192.917C557.423 192.625 558.075 192.198 558.601 191.634C559.127 191.051 559.526 190.342 559.799 189.506C560.072 188.651 560.208 187.67 560.208 186.562V185.921C560.208 184.794 560.072 183.803 559.799 182.948C559.526 182.093 559.127 181.383 558.601 180.82C558.075 180.237 557.423 179.8 556.644 179.508C555.884 179.217 554.998 179.071 553.986 179.071C552.973 179.071 552.077 179.217 551.298 179.508C550.538 179.8 549.896 180.237 549.37 180.82C548.844 181.383 548.445 182.093 548.172 182.948C547.919 183.803 547.792 184.794 547.792 185.921V186.562C547.792 187.67 547.919 188.651 548.172 189.506C548.445 190.342 548.844 191.051 549.37 191.634C549.896 192.198 550.538 192.625 551.298 192.917C552.077 193.208 552.973 193.354 553.986 193.354Z" fill="#7766DD"/>
<path d="M575.96 196.56C574.208 196.56 572.698 196.279 571.432 195.715C570.166 195.152 569.193 194.296 568.511 193.15C567.849 191.984 567.518 190.536 567.518 188.807V176.214H571.315V188.69C571.315 190.225 571.715 191.391 572.513 192.188C573.331 192.965 574.48 193.354 575.96 193.354C577.441 193.354 578.59 192.965 579.408 192.188C580.245 191.391 580.664 190.225 580.664 188.69V176.214H584.461V188.807C584.461 190.536 584.121 191.984 583.439 193.15C582.757 194.296 581.784 195.152 580.518 195.715C579.252 196.279 577.733 196.56 575.96 196.56Z" fill="#7766DD"/>
<path d="M586.272 196.211L594.072 176.214H598.863L606.692 196.211H602.573L600.966 191.955H591.793L590.187 196.211H586.272ZM592.991 188.748H599.739L597.724 183.327C597.646 183.132 597.548 182.889 597.432 182.598C597.334 182.287 597.227 181.957 597.11 181.607C596.993 181.238 596.877 180.868 596.76 180.499C596.643 180.13 596.536 179.8 596.438 179.508H596.292C596.175 179.897 596.029 180.344 595.854 180.849C595.698 181.354 595.542 181.83 595.387 182.277C595.231 182.724 595.104 183.074 595.007 183.327L592.991 188.748Z" fill="#7766DD"/>
<path d="M609.058 196.211V176.214H612.856V192.917H622.905V196.211H609.058Z" fill="#7766DD"/>
<path d="M625.719 196.211V176.214H629.516V196.211H625.719Z" fill="#7766DD"/>
<path d="M633.963 196.211V176.214H641.997C644.022 176.214 645.756 176.574 647.197 177.293C648.638 178.012 649.748 179.11 650.527 180.587C651.306 182.044 651.696 183.919 651.696 186.212C651.696 188.486 651.306 190.361 650.527 191.838C649.748 193.315 648.638 194.413 647.197 195.132C645.756 195.851 644.022 196.211 641.997 196.211H633.963ZM637.761 192.975H641.997C642.932 192.975 643.759 192.839 644.48 192.567C645.201 192.295 645.804 191.897 646.291 191.372C646.778 190.828 647.148 190.157 647.401 189.361C647.654 188.544 647.781 187.602 647.781 186.533V185.921C647.781 184.833 647.654 183.89 647.401 183.093C647.148 182.277 646.778 181.607 646.291 181.082C645.804 180.538 645.201 180.13 644.48 179.858C643.759 179.586 642.932 179.45 641.997 179.45H637.761V192.975Z" fill="#7766DD"/>
<path d="M652.715 196.211L660.515 176.214H665.306L673.135 196.211H669.016L667.409 191.955H658.236L656.629 196.211H652.715ZM659.434 188.748H666.182L664.166 183.327C664.088 183.132 663.991 182.889 663.874 182.598C663.777 182.287 663.67 181.957 663.553 181.607C663.436 181.238 663.319 180.868 663.202 180.499C663.086 180.13 662.978 179.8 662.881 179.508H662.735C662.618 179.897 662.472 180.344 662.297 180.849C662.141 181.354 661.985 181.83 661.829 182.277C661.674 182.724 661.547 183.074 661.45 183.327L659.434 188.748Z" fill="#7766DD"/>
<path d="M675.501 196.211V176.214H683.534C685.56 176.214 687.293 176.574 688.734 177.293C690.175 178.012 691.285 179.11 692.064 180.587C692.843 182.044 693.233 183.919 693.233 186.212C693.233 188.486 692.843 190.361 692.064 191.838C691.285 193.315 690.175 194.413 688.734 195.132C687.293 195.851 685.56 196.211 683.534 196.211H675.501ZM679.298 192.975H683.534C684.469 192.975 685.297 192.839 686.017 192.567C686.738 192.295 687.342 191.897 687.829 191.372C688.315 190.828 688.685 190.157 688.939 189.361C689.192 188.544 689.318 187.602 689.318 186.533V185.921C689.318 184.833 689.192 183.89 688.939 183.093C688.685 182.277 688.315 181.607 687.829 181.082C687.342 180.538 686.738 180.13 686.017 179.858C685.297 179.586 684.469 179.45 683.534 179.45H679.298V192.975Z" fill="#7766DD"/>
<path d="M696.754 196.211V176.214H712.383V179.45H700.552V184.376H711.098V187.612H700.552V192.975H712.559V196.211H696.754Z" fill="#7766DD"/>
<path d="M320.48 107.247C320.48 110.108 320.116 112.691 319.389 114.997C318.661 117.26 317.698 119.267 316.5 121.018C315.302 122.726 313.911 124.199 312.328 125.437C310.744 126.633 309.076 127.615 307.321 128.383C305.609 129.152 303.855 129.728 302.058 130.112C300.303 130.454 298.634 130.625 297.051 130.625H266.946C264.635 130.625 262.111 130.219 259.372 129.408C256.633 128.597 254.087 127.273 251.733 125.437C249.423 123.558 247.476 121.146 245.892 118.199C244.352 115.211 243.581 111.56 243.581 107.247V84.7021C243.581 80.4322 244.352 76.8241 245.892 73.8779C247.476 70.8889 249.423 68.4764 251.733 66.6404C254.087 64.7616 256.633 63.4166 259.372 62.6053C262.111 61.794 264.635 61.3884 266.946 61.3884H297.051C301.33 61.3884 304.967 62.157 307.963 63.6942C310.958 65.2313 313.376 67.1741 315.216 69.5226C317.056 71.8283 318.383 74.3476 319.196 77.0803C320.052 79.813 320.48 82.3536 320.48 84.7021V107.247ZM303.791 84.8302C303.791 82.5244 303.213 80.8165 302.058 79.7063C300.902 78.5961 299.233 78.041 297.051 78.041H267.075C264.849 78.041 263.159 78.6175 262.004 79.7703C260.848 80.8805 260.271 82.5244 260.271 84.7021V107.247C260.271 109.425 260.848 111.09 262.004 112.243C263.159 113.396 264.849 113.972 267.075 113.972H297.051C299.319 113.972 301.009 113.396 302.122 112.243C303.234 111.09 303.791 109.425 303.791 107.247V84.8302Z" fill="#2C2C2C"/>
<path d="M399.026 107.247C399.026 110.108 398.663 112.691 397.935 114.997C397.208 117.26 396.245 119.267 395.047 121.018C393.849 122.726 392.458 124.199 390.874 125.437C389.291 126.633 387.622 127.615 385.868 128.383C384.156 129.152 382.402 129.728 380.604 130.112C378.85 130.454 377.181 130.625 375.598 130.625H345.493C342.626 130.625 340.058 130.262 337.79 129.536C335.522 128.81 333.511 127.849 331.756 126.654C330.045 125.416 328.568 124.007 327.327 122.427C326.129 120.847 325.145 119.203 324.375 117.495C323.604 115.744 323.027 113.994 322.642 112.243C322.299 110.45 322.128 108.784 322.128 107.247V84.7021C322.128 80.4322 322.898 76.8241 324.439 73.8779C326.022 70.8889 327.969 68.4764 330.28 66.6404C332.634 64.7616 335.18 63.4166 337.919 62.6053C340.657 61.794 343.182 61.3884 345.493 61.3884H375.598V78.041H345.621C343.396 78.041 341.706 78.6175 340.55 79.7703C339.395 80.8805 338.817 82.5244 338.817 84.7021V107.119C338.817 109.382 339.374 111.09 340.486 112.243C341.642 113.396 343.31 113.972 345.493 113.972H375.598C377.866 113.972 379.556 113.396 380.668 112.243C381.781 111.09 382.337 109.425 382.337 107.247V32.1182H399.026V107.247Z" fill="#2C2C2C"/>
<path d="M477.766 84.3178C477.766 86.6235 477.359 89.1214 476.546 91.8115C475.733 94.4588 474.407 96.9353 472.566 99.2411C470.769 101.504 468.394 103.404 465.442 104.941C462.532 106.479 458.98 107.247 454.786 107.247H424.682V91.4272H454.786C457.054 91.4272 458.809 90.744 460.05 89.3776C461.291 87.9685 461.911 86.2392 461.911 84.1897C461.911 82.012 461.205 80.3041 459.793 79.0658C458.424 77.8275 456.755 77.2084 454.786 77.2084H424.682C422.414 77.2084 420.659 77.9129 419.418 79.322C418.177 80.6884 417.557 82.3963 417.557 84.4459V107.695C417.557 109.916 418.241 111.645 419.611 112.883C421.023 114.122 422.756 114.741 424.81 114.741H454.786V130.625H424.682C422.371 130.625 419.867 130.219 417.171 129.408C414.518 128.597 412.036 127.294 409.726 125.501C407.457 123.665 405.553 121.295 404.013 118.392C402.472 115.445 401.702 111.88 401.702 107.695V84.3178C401.702 82.012 402.108 79.5355 402.921 76.8882C403.735 74.1981 405.04 71.7216 406.837 69.4585C408.677 67.1528 411.052 65.2313 413.962 63.6942C416.915 62.157 420.488 61.3884 424.682 61.3884H454.786C457.097 61.3884 459.579 61.794 462.232 62.6053C464.928 63.4166 467.41 64.7403 469.678 66.5763C471.989 68.3697 473.914 70.7395 475.455 73.6857C476.996 76.5893 477.766 80.1333 477.766 84.3178Z" fill="#2C2C2C"/>
<path d="M570.883 110.45C570.883 112.499 570.52 114.698 569.792 117.047C569.107 119.395 567.952 121.573 566.326 123.58C564.743 125.586 562.667 127.273 560.1 128.639C557.532 129.963 554.387 130.625 550.664 130.625H487.309C486.111 130.625 484.999 130.411 483.972 129.984C482.945 129.557 482.046 128.981 481.276 128.255C480.548 127.486 479.97 126.59 479.543 125.565C479.115 124.54 478.901 123.43 478.901 122.235V47.1696C478.901 46.0168 479.115 44.9279 479.543 43.9032C479.97 42.8784 480.548 41.9817 481.276 41.2131C482.046 40.4445 482.945 39.8467 483.972 39.4198C484.999 38.9928 486.111 38.7793 487.309 38.7793H543.154C545.208 38.7793 547.412 39.1422 549.765 39.8681C552.119 40.594 554.301 41.7682 556.312 43.3908C558.367 44.9706 560.057 47.0415 561.383 49.6035C562.753 52.1654 563.437 55.3038 563.437 59.0186V62.157C563.437 65.1032 562.945 68.2843 561.961 71.7002C560.977 75.0734 559.394 78.2759 557.211 81.3075C559.094 82.4604 560.849 83.8481 562.475 85.4707C564.144 87.0932 565.598 88.972 566.839 91.1069C568.08 93.2419 569.065 95.6544 569.792 98.3444C570.52 101.034 570.883 104.002 570.883 107.247V110.45ZM554.194 107.247C554.194 105.07 553.852 103.127 553.167 101.419C552.483 99.6681 551.52 98.1736 550.279 96.9353C549.038 95.6971 547.54 94.7577 545.786 94.1172C544.031 93.434 542.063 93.0924 539.88 93.0924H502.265V76.3117H532.37C534.552 76.3117 536.521 75.9915 538.275 75.351C540.03 74.6678 541.528 73.7071 542.769 72.4688C544.01 71.2305 544.951 69.7574 545.593 68.0495C546.278 66.2988 546.62 64.3346 546.62 62.157V59.0186C546.62 56.6275 545.465 55.4319 543.154 55.4319H495.59V113.972H550.664C550.963 113.972 551.327 113.951 551.755 113.908C552.183 113.866 552.568 113.737 552.91 113.524C553.253 113.31 553.552 112.947 553.809 112.435C554.066 111.923 554.194 111.218 554.194 110.321V107.247Z" fill="#2C2C2C"/>
<path d="M648.275 137.286C648.275 140.147 647.911 142.709 647.184 144.972C646.456 147.277 645.493 149.284 644.295 150.992C643.097 152.743 641.706 154.216 640.123 155.412C638.539 156.65 636.87 157.653 635.116 158.422C633.404 159.191 631.671 159.746 629.917 160.087C628.162 160.471 626.493 160.664 624.91 160.664H594.805V144.011H624.91C627.135 144.011 628.804 143.435 629.917 142.282C631.029 141.129 631.586 139.464 631.586 137.286V61.3884H648.275V137.286ZM624.91 130.625H594.805C592.409 130.625 589.841 130.219 587.103 129.408C584.407 128.597 581.882 127.273 579.528 125.437C577.175 123.558 575.228 121.146 573.687 118.199C572.147 115.211 571.376 111.56 571.376 107.247V61.3884H588.065V107.247C588.065 109.425 588.643 111.09 589.799 112.243C590.954 113.396 592.666 113.972 594.934 113.972H624.91V130.625Z" fill="#2C2C2C"/>
<path d="M715.46 78.041H686.318V130.625H669.437V78.041H647.741V61.3884H669.437V38.7793H686.318V61.3884H715.46V78.041Z" fill="#2C2C2C"/>
<path d="M789 84.3178C789 86.6235 788.593 89.1214 787.78 91.8115C786.967 94.4588 785.641 96.9353 783.801 99.2411C782.003 101.504 779.628 103.404 776.676 104.941C773.766 106.479 770.214 107.247 766.02 107.247H735.916V91.4272H766.02C768.288 91.4272 770.043 90.744 771.284 89.3776C772.525 87.9685 773.145 86.2392 773.145 84.1897C773.145 82.012 772.439 80.3041 771.027 79.0658C769.658 77.8275 767.989 77.2084 766.02 77.2084H735.916C733.648 77.2084 731.893 77.9129 730.652 79.322C729.411 80.6884 728.791 82.3963 728.791 84.4459V107.695C728.791 109.916 729.475 111.645 730.845 112.883C732.257 114.122 733.99 114.741 736.044 114.741H766.02V130.625H735.916C733.605 130.625 731.102 130.219 728.406 129.408C725.753 128.597 723.271 127.294 720.96 125.501C718.692 123.665 716.787 121.295 715.247 118.392C713.706 115.445 712.936 111.88 712.936 107.695V84.3178C712.936 82.012 713.343 79.5355 714.156 76.8882C714.969 74.1981 716.274 71.7216 718.071 69.4585C719.911 67.1528 722.286 65.2313 725.196 63.6942C728.149 62.157 731.722 61.3884 735.916 61.3884H766.02C768.331 61.3884 770.813 61.794 773.466 62.6053C776.162 63.4166 778.644 64.7403 780.912 66.5763C783.223 68.3697 785.149 70.7395 786.689 73.6857C788.23 76.5893 789 80.1333 789 84.3178Z" fill="#2C2C2C"/>
<path d="M145.244 0L83.2573 125.979C82.2836 127.922 80.8229 129.471 78.8754 130.625C76.9887 131.839 74.889 132.447 72.5763 132.447C70.3245 132.447 68.2248 131.839 66.2772 130.625C64.3905 129.471 62.9299 127.922 61.8953 125.979L0 0H26.5657L72.5763 94.0973L118.77 0H145.244Z" fill="url(#paint0_linear_27_60)"/>
<path d="M264.09 130.625H230.404L176.999 77.2454H160.292V53.3795H176.999L230.404 0H264.09L196.809 65.3124L264.09 130.625ZM150.798 130.625H127.062V0H150.798V130.625Z" fill="url(#paint1_linear_27_60)"/>
<g clip-path="url(#clip0_27_60)">
<path d="M616.298 48.0355H601.691C600.347 48.0355 599.257 49.123 599.257 50.4646V65.0392C599.257 66.3807 600.347 67.4683 601.691 67.4683H616.298C617.642 67.4683 618.732 66.3807 618.732 65.0392V50.4646C618.732 49.123 617.642 48.0355 616.298 48.0355Z" stroke="#2C2C2C" stroke-width="2" stroke-linecap="round" stroke-linejoin="round"/>
<path d="M612.646 54.1082H605.343V61.3955H612.646V54.1082Z" stroke="#2C2C2C" stroke-width="2" stroke-linecap="round" stroke-linejoin="round"/>
<path d="M605.343 44.3918V48.0354" stroke="#2C2C2C" stroke-width="2" stroke-linecap="round" stroke-linejoin="round"/>
<path d="M612.646 44.3918V48.0354" stroke="#2C2C2C" stroke-width="2" stroke-linecap="round" stroke-linejoin="round"/>
<path d="M605.343 67.4683V71.1119" stroke="#2C2C2C" stroke-width="2" stroke-linecap="round" stroke-linejoin="round"/>
<path d="M612.646 67.4683V71.1119" stroke="#2C2C2C" stroke-width="2" stroke-linecap="round" stroke-linejoin="round"/>
<path d="M618.732 54.1082H622.384" stroke="#2C2C2C" stroke-width="2" stroke-linecap="round" stroke-linejoin="round"/>
<path d="M618.732 60.1809H622.384" stroke="#2C2C2C" stroke-width="2" stroke-linecap="round" stroke-linejoin="round"/>
<path d="M595.605 54.1082H599.257" stroke="#2C2C2C" stroke-width="2" stroke-linecap="round" stroke-linejoin="round"/>
<path d="M595.605 60.1809H599.257" stroke="#2C2C2C" stroke-width="2" stroke-linecap="round" stroke-linejoin="round"/>
</g>
<defs>
<linearGradient id="paint0_linear_27_60" x1="132.821" y1="-54.4726" x2="132.821" y2="183.093" gradientUnits="userSpaceOnUse">
<stop stop-color="#7766DD"/>
<stop offset="0.5" stop-color="#5649A4"/>
<stop offset="1" stop-color="#362D6B"/>
</linearGradient>
<linearGradient id="paint1_linear_27_60" x1="132.821" y1="-54.4726" x2="132.821" y2="183.093" gradientUnits="userSpaceOnUse">
<stop stop-color="#7766DD"/>
<stop offset="0.5" stop-color="#5649A4"/>
<stop offset="1" stop-color="#362D6B"/>
</linearGradient>
<clipPath id="clip0_27_60">
<rect width="29.2131" height="29.1492" fill="white" transform="translate(594.388 43.1772)"/>
</clipPath>
</defs>
</svg>
